<?xml version="1.0" encoding="utf-8"?>
<!-- Generator: Adobe Illustrator 16.0.0, SVG Export Plug-In . SVG Version: 6.00 Build 0)  -->
<!DOCTYPE svg PUBLIC "-//W3C//DTD SVG 1.1//EN" "http://www.w3.org/Graphics/SVG/1.1/DTD/svg11.dtd">
<svg version="1.1" id="图层_1" xmlns="http://www.w3.org/2000/svg" xmlns:xlink="http://www.w3.org/1999/xlink" x="0px" y="0px"
	 width="208.49px" height="236.988px" viewBox="0 0 208.49 236.988" enable-background="new 0 0 208.49 236.988"
	 xml:space="preserve">
<g>
	<path fill="#F3F3F3" d="M310.46-31.488c-0.569,0-1.133,0.023-1.693,0.059c-2.689-11.796-12.957-20.581-25.223-20.581
		s-22.533,8.786-25.223,20.583C244.255-30.54,233.12-18.821,233.12-4.488c0,9.42,4.812,17.708,12.102,22.54
		c1.772,7.616,8.568,13.295,16.701,13.295c6.922,0,12.873-4.12,15.588-10.041h14.477c2.715,5.921,8.666,10.041,15.59,10.041
		c7.865,0,14.479-5.313,16.51-12.553c7.95-4.692,13.289-13.359,13.289-23.281C337.376-19.4,325.325-31.488,310.46-31.488z
		 M318.606,13.52c0.042,7.791-4.518,13.792-10.892,13.792c-6.81,0-13.142-6.848-14.399-15.414h-16.639
		c-1.258,8.566-7.59,15.414-14.399,15.414c-6.066,0-10.497-5.432-10.876-12.672l-0.031,0.008c0,0-2.501-28.083,21.832-30.75h5.918
		h2.416h6.848h8.334h4.568v0.882C318.216-10.459,318.751,8.674,318.606,13.52z"/>
	<path fill="#F3F3F3" d="M273.12,2.668c0,1.139-0.924,2.063-2.063,2.063h-9.293c-1.139,0-2.063-0.923-2.063-2.063l0,0
		c0-1.139,0.924-2.063,2.063-2.063h9.293C272.196,0.605,273.12,1.529,273.12,2.668L273.12,2.668z"/>
	<path fill="#F3F3F3" d="M266.411,9.376c-1.139,0-2.063-0.923-2.063-2.063v-9.292c0-1.139,0.924-2.063,2.063-2.063l0,0
		c1.139,0,2.063,0.923,2.063,2.063v9.292C268.474,8.453,267.55,9.376,266.411,9.376L266.411,9.376z"/>
	<circle fill="#F3F3F3" cx="299.474" cy="-1.478" r="2.563"/>
	<circle fill="#F3F3F3" cx="307.183" cy="-1.478" r="2.563"/>
	<circle fill="#F3F3F3" cx="299.474" cy="5.938" r="2.563"/>
	<circle fill="#F3F3F3" cx="307.183" cy="5.938" r="2.563"/>
</g>
</svg>
