<?xml version="1.0" encoding="utf-8"?>
<!-- Generator: Adobe Illustrator 16.0.0, SVG Export Plug-In . SVG Version: 6.00 Build 0)  -->
<!DOCTYPE svg PUBLIC "-//W3C//DTD SVG 1.1//EN" "http://www.w3.org/Graphics/SVG/1.1/DTD/svg11.dtd">
<svg version="1.1" id="图层_1" xmlns="http://www.w3.org/2000/svg" xmlns:xlink="http://www.w3.org/1999/xlink" x="0px" y="0px"
	 width="401.98px" height="329px" viewBox="0 0 401.98 329" enable-background="new 0 0 401.98 329" xml:space="preserve">
<path fill="#354650" d="M285.609,159.063L187.147,55.769c-1.093-1.146-2.688-1.595-4.358-1.396c-1.672-0.199-3.267,0.25-4.359,1.396
	L79.967,159.063c-2.111,2.215-1.553,6.173,1.246,8.84l1.205,1.149c2.799,2.668,6.778,3.035,8.89,0.82l91.481-95.972l91.48,95.972
	c2.111,2.215,6.091,1.848,8.889-0.82l1.206-1.149C287.163,165.236,287.721,161.278,285.609,159.063z"/>
<path fill="#FF441B" d="M226.269,137.234l-43.48-44.667l-42.962,44.667l-36.549,38v56.999c0,7.18,5.82,13,13,13H249.61
	c7.18,0,13-5.82,13-13v-57.666L226.269,137.234z"/>
<path fill="#37464E" d="M235.537,234.474c0,3.866-3.134,7-7,7h-9.625c-3.866,0-7-3.134-7-7v-24.531c0-3.866,3.134-7,7-7h9.625
	c3.866,0,7,3.134,7,7V234.474z"/>
<path fill="#FFFFFF" d="M227.006,206.567c0,0.552-0.447,1-1,1h-4.563c-0.553,0-1-0.448-1-1l0,0c0-0.552,0.447-1,1-1h4.563
	C226.559,205.567,227.006,206.016,227.006,206.567L227.006,206.567z"/>
<path fill="#FFFFFF" d="M227.006,238.005c0,0.828-0.447,1.5-1,1.5h-4.563c-0.553,0-1-0.672-1-1.5l0,0c0-0.828,0.447-1.5,1-1.5h4.563
	C226.559,236.505,227.006,237.177,227.006,238.005L227.006,238.005z"/>
<path fill="none" stroke="#F8FFFF" stroke-width="3" stroke-linecap="round" stroke-miterlimit="10" d="M118.943,207.567
	c0,0,6.375,3.875,9.688,8.25s6.094,11.375,6.094,11.375"/>
<path fill="none" stroke="#F8CFCB" stroke-width="3" stroke-linecap="round" stroke-miterlimit="10" d="M110.943,179.734
	c0,0,17,11.166,28.834,26.833c11.832,15.667,21.5,32.938,21.5,32.938"/>
<path fill="none" stroke="#FE9E8F" stroke-width="3" stroke-linecap="round" stroke-miterlimit="10" d="M120.943,160.734
	c0,0,27.834,24.083,42,42.208s25.5,38.531,25.5,38.531"/>
<path fill="none" stroke="#FE9E8F" stroke-width="3" stroke-linecap="round" stroke-miterlimit="10" d="M138.776,141.468
	c0,0,27.833,24.083,42,42.208s25.5,38.531,25.5,38.531"/>
<path fill="none" stroke="#FE9E8F" stroke-width="3" stroke-linecap="round" stroke-miterlimit="10" d="M166.686,122.203
	c0,0,37.527,32.398,56.627,56.781c19.101,24.383,34.381,51.834,34.381,51.834"/>
<path fill="#FE9E8F" d="M262.61,183.984c-5.29-8.029-11.532-16.982-18.222-25.521c-18.97-24.217-56.451-56.667-56.827-56.991
	c-0.629-0.543-1.574-0.472-2.116,0.155c-0.541,0.627-0.472,1.575,0.155,2.116c0.374,0.323,37.638,32.584,56.427,56.57
	c7.723,9.859,14.851,20.279,20.583,29.161V183.984z"/>
<g>
	<path fill="#37464E" d="M137.777,231.901h-14.865v-5.271h0.453c0.268,0,0.484-0.217,0.484-0.484s-0.217-0.484-0.484-0.484h-0.453
		v-1.156c0-0.518-0.42-0.938-0.938-0.938s-0.938,0.42-0.938,0.938v1.156h-0.672c-0.268,0-0.484,0.217-0.484,0.484
		s0.217,0.484,0.484,0.484h0.672v5.271h-1.553c-0.552,0-1,0.447-1,1v5.541c0,0.553,0.448,1,1,1h0.893
		c-0.291,0.175-0.496,0.479-0.496,0.844v0.188c0,0.553,0.447,1,1,1h1.969c0.553,0,1-0.447,1-1v-0.188
		c0-0.364-0.205-0.669-0.496-0.844h10.961c-0.291,0.175-0.496,0.479-0.496,0.844v0.188c0,0.553,0.447,1,1,1h1.969
		c0.553,0,1-0.447,1-1v-0.188c0-0.364-0.205-0.669-0.496-0.844h0.486c0.552,0,1-0.447,1-1v-5.541
		C138.777,232.349,138.329,231.901,137.777,231.901z"/>
	<path fill="#FFFFFF" d="M124.662,235.567c0,0.553-0.447,1-1,1h-2.5c-0.553,0-1-0.447-1-1v-0.031c0-0.553,0.447-1,1-1h2.5
		c0.553,0,1,0.447,1,1V235.567z"/>
	<path fill="#FFFFFF" d="M130.881,235.567c0,0.553-0.447,1-1,1h-2.5c-0.553,0-1-0.447-1-1v-0.031c0-0.553,0.447-1,1-1h2.5
		c0.553,0,1,0.447,1,1V235.567z"/>
	<path fill="#FFFFFF" d="M136.975,235.567c0,0.553-0.447,1-1,1h-2.5c-0.553,0-1-0.447-1-1v-0.031c0-0.553,0.447-1,1-1h2.5
		c0.553,0,1,0.447,1,1V235.567z"/>
</g>
<path fill="#FFFFFF" d="M211.912,209.942v24.531c0,0.438,0.045,0.865,0.122,1.281h23.381c0.077-0.416,0.122-0.843,0.122-1.281
	v-24.531c0-0.341-0.032-0.673-0.079-1h-23.467C211.944,209.27,211.912,209.602,211.912,209.942z"/>
</svg>
