<?xml version="1.0" encoding="utf-8"?>
<!-- Generator: Adobe Illustrator 16.0.0, SVG Export Plug-In . SVG Version: 6.00 Build 0)  -->
<!DOCTYPE svg PUBLIC "-//W3C//DTD SVG 1.1//EN" "http://www.w3.org/Graphics/SVG/1.1/DTD/svg11.dtd">
<svg version="1.1" id="图层_1" xmlns="http://www.w3.org/2000/svg" xmlns:xlink="http://www.w3.org/1999/xlink" x="0px" y="0px"
	 width="208.49px" height="236.988px" viewBox="0 0 208.49 236.988" enable-background="new 0 0 208.49 236.988"
	 xml:space="preserve">
<g>
	<g>
		<path fill="#F3F3F3" d="M316.952,89.813c9.215,0,16.711,6.896,16.711,15.372c0,0.785-0.081,1.612-0.247,2.531l-0.394,2.171
			l2.199,0.179c8.609,0.701,15.102,6.773,15.102,14.125c0,7.828-7.496,14.196-16.711,14.196h-17.102v-19.148h2.57h3.404
			l-1.656-2.974l-7.363-13.208l-1.637-2.938l-1.8,2.842l-8.362,13.208l-1.943,3.07h3.633h2.57v19.148H289.89
			c-9.215,0-16.711-8.121-16.711-18.102s7.496-18.102,16.711-18.102c2.672,0,5.24,0.677,7.632,2.011l2.469,1.377l0.477-2.787
			C301.752,95.269,308.685,89.813,316.952,89.813 M316.952,87.813c-9.328,0-17.039,6.344-18.457,14.634
			c-2.578-1.438-5.5-2.264-8.605-2.264c-10.334,0-18.711,9-18.711,20.102c0,11.102,8.377,20.102,18.711,20.102h18.037v-23.148h-4.57
			l8.363-13.208l7.361,13.208h-4.57v23.148h19.102c10.334,0,18.711-7.251,18.711-16.196c0-8.427-7.438-15.345-16.939-16.118
			c0.17-0.941,0.279-1.901,0.279-2.888C335.663,95.591,327.286,87.813,316.952,87.813L316.952,87.813z"/>
	</g>
	<path fill="#F3F3F3" d="M276.074,106.762h-8.647c-9.373,0-16.998-6.529-16.998-14.555c0-7.539,6.604-13.765,15.363-14.482
		l2.195-0.18l-0.391-2.167c-0.168-0.943-0.251-1.792-0.251-2.599c0-8.374,7.083-15.243,15.988-15.729v22.388h-1.28h-3.242
		l1.455,2.897l6.405,12.753l1.787,3.559l1.787-3.559l6.404-12.753l1.455-2.897h-3.242h-1.279V59.579
		c3.986,2.415,6.781,6.33,7.53,10.737l0.475,2.799l2.476-1.39c2.433-1.366,5.044-2.059,7.761-2.059
		c9.373,0,16.998,8.32,16.998,18.548c0,1.143-0.108,2.257-0.291,3.343c0.615,0.451,1.203,0.93,1.751,1.447
		c0.341-1.54,0.54-3.138,0.54-4.791c0-11.348-8.506-20.548-18.998-20.548c-3.154,0-6.121,0.844-8.74,2.314
		c-1.049-6.176-5.5-11.282-11.501-13.604v25.061h3.279l-6.404,12.753l-6.405-12.753h3.28V55.064
		c-0.329-0.016-0.655-0.042-0.989-0.042c-10.492,0-18.999,7.95-18.999,17.757c0,1.008,0.11,1.99,0.283,2.952
		c-9.648,0.791-17.2,7.862-17.2,16.476c0,9.143,8.506,16.555,18.998,16.555h7.145C275.031,108.058,275.536,107.395,276.074,106.762z
		"/>
</g>
</svg>
