<?xml version="1.0" encoding="utf-8"?>
<!-- Generator: Adobe Illustrator 16.0.0, SVG Export Plug-In . SVG Version: 6.00 Build 0)  -->
<!DOCTYPE svg PUBLIC "-//W3C//DTD SVG 1.1//EN" "http://www.w3.org/Graphics/SVG/1.1/DTD/svg11.dtd">
<svg version="1.1" id="图层_1" xmlns="http://www.w3.org/2000/svg" xmlns:xlink="http://www.w3.org/1999/xlink" x="0px" y="0px"
	 width="208.49px" height="236.988px" viewBox="0 0 208.49 236.988" enable-background="new 0 0 208.49 236.988"
	 xml:space="preserve">
<rect x="41.414" y="37.98" fill="#F5A623" width="123.334" height="151.083"/>
<path fill="#384450" d="M41.414,184.064v24c0,2.761,2.238,5,5,5h113.334c2.762,0,5-2.239,5-5v-24H41.414z M118.997,198.647
	c0,2.761-2.238,5-5,5H93.914c-2.762,0-5-2.239-5-5v-0.167c0-2.761,2.238-5,5-5h20.083c2.762,0,5,2.239,5,5V198.647z"/>
<path fill="#384450" d="M159.748,21.064H46.414c-2.762,0-5,2.239-5,5v15.333h123.334V26.064
	C164.748,23.303,162.51,21.064,159.748,21.064z M115.748,35.397h-24c-2.025,0-3.667-1.642-3.667-3.667s1.642-3.667,3.667-3.667h24
	c2.024,0,3.666,1.642,3.666,3.667S117.772,35.397,115.748,35.397z"/>
<circle fill="#546A79" cx="56.247" cy="32.23" r="3.75"/>
<path fill="#546A79" d="M136.977,31.897c0,1.898-1.539,3.438-3.438,3.438h-4.563c-1.898,0-3.438-1.539-3.438-3.438l0,0
	c0-1.898,1.539-3.438,3.438-3.438h4.563C135.438,28.459,136.977,29.999,136.977,31.897L136.977,31.897z"/>
<path fill="#546A79" d="M151.602,31.897c0,1.898-1.539,3.438-3.438,3.438h-4.563c-1.898,0-3.438-1.539-3.438-3.438l0,0
	c0-1.898,1.539-3.438,3.438-3.438h4.563C150.063,28.459,151.602,29.999,151.602,31.897L151.602,31.897z"/>
</svg>
