<?xml version="1.0" encoding="utf-8"?>
<!-- Generator: Adobe Illustrator 16.0.0, SVG Export Plug-In . SVG Version: 6.00 Build 0)  -->
<!DOCTYPE svg PUBLIC "-//W3C//DTD SVG 1.1//EN" "http://www.w3.org/Graphics/SVG/1.1/DTD/svg11.dtd">
<svg version="1.1" id="图层_1" xmlns="http://www.w3.org/2000/svg" xmlns:xlink="http://www.w3.org/1999/xlink" x="0px" y="0px"
	 width="208.49px" height="236.988px" viewBox="0 0 208.49 236.988" enable-background="new 0 0 208.49 236.988"
	 xml:space="preserve">
<g>
	<g>
		<path fill="#F3F3F3" d="M370.64,137.765c2.067,0,3.75,1.682,3.75,3.75v59.333c0,2.068-1.683,3.75-3.75,3.75h-90.167
			c-2.068,0-3.75-1.682-3.75-3.75v-59.333c0-2.068,1.682-3.75,3.75-3.75H370.64 M370.64,133.765h-90.167
			c-4.281,0-7.75,3.47-7.75,7.75v59.333c0,4.28,3.469,7.75,7.75,7.75h90.167c4.28,0,7.75-3.47,7.75-7.75v-59.333
			C378.39,137.234,374.92,133.765,370.64,133.765L370.64,133.765z"/>
	</g>
	<rect x="272.723" y="146.598" fill="#F3F3F3" width="105.667" height="3.5"/>
	<rect x="272.723" y="191.598" fill="#F3F3F3" width="105.667" height="3.5"/>
	<rect x="296.473" y="215.348" fill="#F3F3F3" width="58.166" height="3.5"/>
	<path fill="#F3F3F3" d="M315.432,216.431h-3.918v-8.75h3.918V216.431z M339.598,207.681h-3.917v8.75h3.917V207.681z"/>
	<g>
		<path fill="#F3F3F3" d="M324.968,157.382c3.056,0,5.542,2.374,5.542,5.292s-2.486,5.292-5.542,5.292s-5.542-2.374-5.542-5.292
			S321.912,157.382,324.968,157.382 M324.968,153.382c-5.27,0-9.542,4.16-9.542,9.292c0,5.132,4.272,9.292,9.542,9.292
			s9.542-4.16,9.542-9.292C334.51,157.542,330.237,153.382,324.968,153.382L324.968,153.382z"/>
	</g>
	<path fill="#F3F3F3" d="M316.08,191.598v-8c0-3.309,2.691-6,6-6h6.75c3.309,0,6,2.691,6,6v8h4v-8c0-5.523-4.477-10-10-10h-6.75
		c-5.522,0-10,4.477-10,10v8H316.08z"/>
</g>
</svg>
