<?xml version="1.0" encoding="utf-8"?>
<!-- Generator: Adobe Illustrator 16.0.0, SVG Export Plug-In . SVG Version: 6.00 Build 0)  -->
<!DOCTYPE svg PUBLIC "-//W3C//DTD SVG 1.1//EN" "http://www.w3.org/Graphics/SVG/1.1/DTD/svg11.dtd">
<svg version="1.1" id="图层_1" xmlns="http://www.w3.org/2000/svg" xmlns:xlink="http://www.w3.org/1999/xlink" x="0px" y="0px"
	 width="208.49px" height="236.988px" viewBox="0 0 208.49 236.988" enable-background="new 0 0 208.49 236.988"
	 xml:space="preserve">
<g>
	<path fill="#F3F3F3" d="M315.83,147.564c8.686,0,15.75,7.065,15.75,15.75v40c0,8.685-7.064,15.75-15.75,15.75h-62.166
		c-8.685,0-15.75-7.065-15.75-15.75v-40c0-8.685,7.065-15.75,15.75-15.75H315.83 M315.83,141.564h-62.166
		c-12.012,0-21.75,9.738-21.75,21.75v40c0,12.012,9.738,21.75,21.75,21.75h62.166c12.013,0,21.75-9.738,21.75-21.75v-40
		C337.58,151.302,327.843,141.564,315.83,141.564L315.83,141.564z"/>
</g>
<g>
	<path fill="#F3F3F3" d="M278.032,175.163l13.147,7.635l-13.147,7.635V175.163 M272.032,164.741v36.114l31.096-18.057
		L272.032,164.741L272.032,164.741z"/>
</g>
</svg>
